<?xml version="1.0" standalone="no"?>
<!DOCTYPE svg PUBLIC "-//W3C//DTD SVG 20010904//EN"
 "http://www.w3.org/TR/2001/REC-SVG-20010904/DTD/svg10.dtd">
<svg version="1.0" xmlns="http://www.w3.org/2000/svg"
 width="128.000000pt" height="128.000000pt" viewBox="0 0 128.000000 128.000000"
 preserveAspectRatio="xMidYMid meet">
<metadata>
Created by potrace 1.14, written by Peter Selinger 2001-2017
</metadata>
<g transform="translate(0.000000,128.000000) scale(0.100000,-0.100000)"
fill="#000000" stroke="none">
<path d="M570 1133 c-14 -9 -81 -73 -150 -142 l-126 -126 -66 -180 c-36 -99
-74 -203 -84 -230 -35 -102 6 -167 128 -203 203 -61 368 -79 518 -59 37 6 77
3 123 -6 l68 -15 -6 28 c-7 30 15 56 39 47 8 -3 22 -31 32 -61 17 -55 19 -56
55 -56 24 0 39 5 43 16 3 9 6 108 6 220 0 237 5 227 -104 212 -86 -12 -99 -17
-93 -38 6 -22 -10 -50 -28 -50 -8 0 -22 12 -32 28 -53 86 -119 126 -209 126
-110 -1 -197 -65 -226 -168 -14 -49 -35 -71 -55 -55 -32 27 10 146 72 205 33
31 35 37 37 102 l2 69 94 0 c146 1 160 16 161 170 0 105 -9 124 -84 162 -48
25 -82 27 -115 4z m245 -728 c0 -28 -40 -44 -128 -51 -82 -7 -122 -1 -130 19
-11 29 10 39 92 42 46 2 85 6 89 10 3 3 22 5 42 3 27 -2 35 -7 35 -23z"/>
</g>
</svg>
